<svg width="144" height="144" viewBox="0 0 144 144" fill="none" xmlns="http://www.w3.org/2000/svg">
<path d="M57.079 125.489L56.2727 125.239L55.4916 127.734L54.3147 127.371L53.3536 124.337L52.3898 124.04L53.402 127.169C52.2977 127.06 51.4965 127.51 51.1535 128.605C50.7903 129.765 51.1773 130.834 52.6971 131.304L55.0324 132.025L57.079 125.489ZM55.2639 128.462L54.4539 131.049L53.036 130.611C52.1279 130.33 51.7195 129.719 51.9818 128.881C52.2181 128.126 52.8637 127.72 53.9572 128.058L55.2639 128.462Z" fill="black"/>
<path d="M48.1824 122.289L44.2276 120.316L43.8836 120.997L47.0838 122.594L46.0603 124.618L43.5885 123.385L43.2445 124.066L45.7162 125.299L44.6796 127.35L41.6615 125.844L41.3174 126.525L45.0901 128.407L48.1824 122.289Z" fill="black"/>
<path d="M40.5136 117.998L39.8191 117.52L38.1522 119.915L35.6776 118.216L35.2415 118.842L37.7161 120.542L36.3362 122.525L33.4146 120.518L32.9786 121.144L36.5946 123.628L40.5136 117.998Z" fill="black"/>
<path d="M33.9413 112.878L33.3204 112.309L31.2356 114.557L26.9167 115.756L27.6447 116.422L30.9566 115.455L30.9709 115.468L30.2783 118.833L30.992 119.486L31.8565 115.125L33.9413 112.878Z" fill="black"/>
<path d="M28.9509 107.801L28.4316 107.14L24.1538 110.454L24.1419 110.439L26.0501 104.106L25.5189 103.43L20.0855 107.64L20.6048 108.301L24.9286 104.951L24.9345 104.958L23.0042 111.357L23.5175 112.011L28.9509 107.801Z" fill="black"/>
<path d="M23.4792 100.133L21.3631 96.2716L20.6898 96.6358L22.4021 99.7605L20.399 100.844L19.0765 98.4305L18.4031 98.7947L19.7257 101.208L17.697 102.305L16.0821 99.3584L15.4088 99.7226L17.4274 103.406L23.4792 100.133Z" fill="black"/>
<path d="M17.7122 86.5632L16.6966 82.284L15.9504 82.4588L16.7722 85.9216L14.5524 86.4415L13.9177 83.767L13.1714 83.9418L13.8061 86.6163L11.558 87.1429L10.783 83.8771L10.0367 84.0519L11.0055 88.1341L17.7122 86.5632Z" fill="black"/>
<path d="M16.1025 77.966L16.0249 77.1308L13.406 77.3707L13.2928 76.1514L15.7442 74.1065L15.6515 73.108L13.1299 75.2368C12.8078 74.1819 12.0831 73.6189 10.9331 73.7243C9.7154 73.8358 8.87026 74.6007 9.01642 76.1753L9.24101 78.5947L16.1025 77.966ZM12.6425 77.4406L9.92693 77.6894L9.79057 76.2205C9.70323 75.2796 10.1145 74.6707 10.9939 74.5901C11.7864 74.5175 12.4117 74.954 12.5169 76.0869L12.6425 77.4406Z" fill="black"/>
<path d="M16.5383 63.3115C16.719 62.1295 16.2136 60.9414 14.9662 60.7532C13.6901 60.5606 13.2358 61.477 12.6114 62.5432C12.1554 63.3424 11.8223 63.9162 11.1713 63.8082C10.5203 63.7002 10.2609 63.0857 10.3585 62.447C10.4358 61.9418 10.7646 61.3965 11.2986 60.9213L10.7139 60.3161C10.0981 60.8766 9.7061 61.5781 9.59094 62.3311C9.41309 63.4941 10.0614 64.5184 11.0785 64.6719C12.2778 64.8529 12.8656 63.8981 13.3928 62.9537C13.8767 62.1003 14.1715 61.5207 14.9295 61.6351C15.5916 61.735 15.8894 62.3553 15.7625 63.1846C15.662 63.8424 15.2441 64.5205 14.5557 64.9139L15.1169 65.5448C15.9496 64.978 16.4085 64.1598 16.5383 63.3115Z" fill="black"/>
<path d="M18.1933 55.9318L18.435 55.1281L12.5675 53.3863L13.1649 51.4002L12.4302 51.1821L11.0021 55.9304L11.7367 56.1485L12.3258 54.19L18.1933 55.9318Z" fill="black"/>
<path d="M20.2442 50.3302L20.5821 49.5615L14.2674 46.822L13.9295 47.5908L20.2442 50.3302Z" fill="black"/>
<path d="M22.897 44.9612L23.3217 44.2362L20.7885 42.7717L22.3017 40.1884L21.639 39.8053L20.1258 42.3886L18.0288 41.1763L19.8153 38.1263L19.1527 37.7432L16.9415 41.5182L22.897 44.9612Z" fill="black"/>
<path d="M27.451 38.1458L27.965 37.4803L23.1064 33.7769L24.3766 32.1323L23.7683 31.6686L20.7317 35.6004L21.34 36.0641L22.5925 34.4424L27.451 38.1458Z" fill="black"/>
<path d="M31.2954 33.6754L34.4704 30.6126L33.9363 30.0661L31.3671 32.5446L29.7783 30.919L31.7626 29.0048L31.2285 28.4583L29.2442 30.3726L27.6351 28.7263L30.0581 26.3889L29.524 25.8425L26.4952 28.7642L31.2954 33.6754Z" fill="black"/>
<path d="M39.0961 27.0204L39.7808 26.5296L36.1974 21.596L37.8895 20.3831L37.4409 19.7654L33.3956 22.6652L33.8443 23.2829L35.5127 22.0869L39.0961 27.0204Z" fill="black"/>
<path d="M49.5554 21.171L50.3369 20.8534L49.227 18.1585L52.0115 17.0266L51.7211 16.3217L48.9366 17.4535L48.0178 15.2227L51.3053 13.8863L51.015 13.1814L46.946 14.8354L49.5554 21.171Z" fill="black"/>
<path d="M58.9545 18.1847C60.8292 17.7235 61.9511 16.0072 61.4473 13.9857C60.9411 11.9548 59.1426 10.957 57.268 11.4182C55.3179 11.8979 54.2571 13.6587 54.7493 15.6334C55.2415 17.6082 57.0045 18.6644 58.9545 18.1847ZM58.7632 17.4172C57.3125 17.7741 55.9798 16.92 55.6066 15.4225C55.231 13.9158 56.0085 12.5425 57.4592 12.1856C58.8441 11.8449 60.2051 12.6524 60.59 14.1966C60.9726 15.7315 60.1481 17.0766 58.7632 17.4172Z" fill="black"/>
<path d="M65.1764 17.0669L66.0167 16.9856L65.7618 14.3851L66.9885 14.2663L69.0594 16.6912L70.064 16.594L67.9083 14.0998C68.9685 13.7745 69.5314 13.0516 69.4194 11.9096C69.3009 10.7005 68.5266 9.86483 66.9425 10.0181L64.5084 10.2537L65.1764 17.0669ZM65.6874 13.627L65.4231 10.9304L66.9009 10.7874C67.8475 10.6958 68.4626 11.1013 68.5482 11.9746C68.6254 12.7614 68.1892 13.3849 67.0494 13.4952L65.6874 13.627Z" fill="black"/>
<path d="M77.3517 16.9597L78.2239 17.0976L79.0916 15.5457L82.1298 16.026L82.4794 17.7702L83.3516 17.9081L81.8465 10.7385L81.0126 10.6067L77.3517 16.9597ZM79.4758 14.8645L81.2551 11.6702L81.2742 11.6732L81.9869 15.2614L79.4758 14.8645Z" fill="black"/>
<path d="M88.6561 19.4305L89.4603 19.686L91.3255 13.8912L93.3129 14.5226L93.5464 13.7971L88.7951 12.2877L88.5615 13.0132L90.5212 13.6357L88.6561 19.4305Z" fill="black"/>
<path d="M99.6067 24.3126L100.328 24.7483L101.694 22.5155L102.748 23.1515L102.941 26.3258L103.803 26.8466L103.584 23.5664C104.629 23.9378 105.516 23.6948 106.116 22.7144C106.751 21.6763 106.636 20.5462 105.276 19.7249L103.186 18.4629L99.6067 24.3126ZM102.093 21.8647L103.509 19.5495L104.778 20.3157C105.591 20.8065 105.838 21.4974 105.379 22.2472C104.966 22.9228 104.24 23.1617 103.262 22.5708L102.093 21.8647Z" fill="black"/>
<path d="M105.209 28.0143L108.634 30.7984L109.119 30.2089L106.348 27.956L107.792 26.2024L109.933 27.9424L110.418 27.3529L108.277 25.6129L109.74 23.8369L112.354 25.9616L112.839 25.3721L109.572 22.7162L105.209 28.0143Z" fill="black"/>
<path d="M111.753 33.8161L113.13 35.3729C114.585 37.0166 116.533 37.0999 118.056 35.7694C119.587 34.4325 119.728 32.4603 118.286 30.8311L116.928 29.296L111.753 33.8161ZM112.886 33.9431L116.909 30.4289L117.717 31.3413C118.78 32.5433 118.66 34.0864 117.479 35.1177C116.313 36.1363 114.783 36.0864 113.674 34.8337L112.886 33.9431Z" fill="black"/>
<path d="M117.669 41.1517L120.009 44.8828L120.66 44.4799L118.766 41.4606L120.701 40.2622L122.164 42.5941L122.815 42.1912L121.352 39.8593L123.312 38.6455L125.099 41.4929L125.749 41.0901L123.516 37.5307L117.669 41.1517Z" fill="black"/>
<path d="M121.964 48.7844L122.306 49.5511L124.985 48.3697L126.206 51.1015L126.906 50.7924L125.686 48.0606L127.903 47.0826L129.345 50.3079L130.045 49.9989L128.261 46.0069L121.964 48.7844Z" fill="black"/>
<path d="M124.436 55.0872L124.688 55.8879L131.266 53.8487L131.014 53.048L124.436 55.0872Z" fill="black"/>
<path d="M126.003 60.8288L126.14 61.6566L131.493 60.7824L131.497 60.8014L126.768 65.4526L126.908 66.2993L133.708 65.189L133.571 64.3613L128.16 65.2449L128.158 65.2354L132.938 60.5367L132.803 59.7186L126.003 60.8288Z" fill="black"/>
<path d="M127.109 70.1641L127.105 74.5607L127.872 74.5614L127.875 71.0037L130.156 71.0058L130.153 73.7536L130.92 73.7543L130.923 71.0065L133.233 71.0086L133.229 74.3639L133.996 74.3646L134 70.1705L127.109 70.1641Z" fill="black"/>
<path d="M126.682 78.8979L126.564 79.7285L129.168 80.0944L128.996 81.3068L126.136 82.7356L125.994 83.7285L128.942 82.2341C129.011 83.3344 129.585 84.0481 130.729 84.2087C131.94 84.3789 132.939 83.828 133.162 82.2624L133.505 79.8566L126.682 78.8979ZM129.927 80.2011L132.628 80.5805L132.42 82.0411C132.286 82.9767 131.745 83.4751 130.87 83.3522C130.082 83.2415 129.575 82.6736 129.736 81.5471L129.927 80.2011Z" fill="black"/>
<path d="M125.469 85.4727L124.246 89.6979L124.983 89.9085L125.973 86.4894L128.164 87.1157L127.4 89.7565L128.137 89.9671L128.901 87.3263L131.121 87.9606L130.187 91.1852L130.924 91.3957L132.091 87.3651L125.469 85.4727Z" fill="black"/>
<path d="M120.077 99.1642L119.61 99.8751L124.009 102.722L124.004 102.731L119.544 102.502L119.231 102.979L121.244 106.939L121.233 106.956L116.834 104.108L116.373 104.811L122.147 108.548L122.608 107.845L120.258 103.321L120.269 103.305L125.384 103.612L125.85 102.901L120.077 99.1642Z" fill="black"/>
<path d="M116.525 115.794C116.146 116.181 116.174 116.76 116.522 117.096C116.891 117.453 117.467 117.431 117.832 117.058C118.198 116.685 118.176 116.112 117.821 115.77C117.46 115.42 116.87 115.442 116.525 115.794ZM116.893 116.15C117.049 115.992 117.303 115.981 117.47 116.143C117.63 116.297 117.633 116.556 117.478 116.715C117.309 116.888 117.048 116.892 116.888 116.737C116.728 116.582 116.724 116.323 116.893 116.15ZM113.349 108.528L112.733 109.157L113.511 110.756L111.365 112.947L109.729 112.226L109.113 112.855L115.879 115.762L116.468 115.161L113.349 108.528ZM113.85 111.46L115.453 114.745L115.44 114.759L112.077 113.271L113.85 111.46Z" fill="black"/>
<path d="M106.037 115.4L104.35 116.62C102.569 117.908 102.307 119.827 103.5 121.456C104.7 123.093 106.664 123.414 108.429 122.137L110.092 120.934L106.037 115.4ZM105.806 116.509L108.959 120.812L107.97 121.527C106.667 122.469 105.132 122.208 104.206 120.945C103.293 119.698 103.483 118.189 104.841 117.207L105.806 116.509Z" fill="black"/>
<path d="M98.1413 120.578L94.1865 122.552L94.5306 123.232L97.7308 121.636L98.7543 123.66L96.2826 124.894L96.6267 125.574L99.0984 124.341L100.135 126.392L97.1169 127.897L97.461 128.578L101.234 126.696L98.1413 120.578Z" fill="black"/>
<path d="M90.1417 124.151L89.3354 124.401L90.9467 129.547L90.9282 129.553L85.6379 125.543L84.8131 125.798L86.8596 132.335L87.6658 132.085L86.0373 126.884L86.0465 126.881L91.3912 130.934L92.1882 130.688L90.1417 124.151Z" fill="black"/>
<path d="M74.5666 131.245C74.5666 132.767 73.3251 134 71.7937 134C70.2623 134 69.0209 132.767 69.0209 131.245C69.0209 129.724 70.2623 128.491 71.7937 128.491C73.3251 128.491 74.5666 129.724 74.5666 131.245Z" fill="#EE665F"/>
<circle cx="72" cy="72" r="46.5" stroke="black"/>
<circle cx="72" cy="72" r="14" fill="black"/>
<circle cx="72" cy="72" r="71.5" stroke="black"/>
</svg>
