<svg width="124" height="103" viewBox="0 0 124 103" fill="none" xmlns="http://www.w3.org/2000/svg">
<path d="M7.71769 89.0608L7.72768 89.0779L7.73833 89.0945C10.138 92.8446 13.2079 95.9288 16.9413 98.34C20.7601 100.806 25.6099 102 31.4194 102C38.3882 102 44.4408 99.5662 49.5281 94.7244C54.6451 89.8542 57.1936 83.622 57.1936 76.1111C57.1936 68.1055 54.6597 61.7211 49.5072 57.0896C44.4169 52.514 38.371 50.2222 31.4194 50.2222C26.2839 50.2222 21.6838 51.6803 17.6498 54.5923C17.1774 52.695 16.9355 50.5374 16.9355 48.1111C16.9355 40.8655 19.6654 33.6904 25.2326 26.569C31.0719 19.4299 37.9083 14.2223 45.7431 10.9216L46.7247 10.508L46.2501 9.55444L42.7662 2.55444L42.3292 1.67627L41.4427 2.09633C27.6334 8.64032 17.4031 17.1812 10.8283 27.7496C4.274 38.285 1 50.0063 1 62.8889C1 66.0734 1.39534 70.1491 2.17342 75.0997L2.17822 75.1303L2.18489 75.1604C3.24115 79.9356 5.088 84.5697 7.71769 89.0608ZM73.5241 89.0608L73.5341 89.0779L73.5448 89.0945C75.9444 92.8446 79.0143 95.9288 82.7478 98.34C86.5666 100.806 91.4163 102 97.2258 102C104.195 102 110.247 99.5662 115.335 94.7244C120.452 89.8542 123 83.622 123 76.1111C123 68.1055 120.466 61.7211 115.314 57.0896C110.223 52.514 104.177 50.2222 97.2258 50.2222C92.0903 50.2222 87.4903 51.6803 83.4562 54.5923C82.9838 52.695 82.7419 50.5374 82.7419 48.1111C82.7419 40.8655 85.4718 33.6903 91.0391 26.569C96.8784 19.4299 103.715 14.2223 111.55 10.9216L112.531 10.508L112.057 9.55444L108.573 2.55444L108.136 1.67627L107.249 2.09633C93.4399 8.64032 83.2096 17.1812 76.6348 27.7496C70.0805 38.285 66.8064 50.0063 66.8064 62.8889C66.8064 66.0734 67.2018 70.1491 67.9799 75.0997L67.9847 75.1303L67.9913 75.1604C69.0476 79.9356 70.8945 84.5697 73.5241 89.0608Z" stroke="#EE665F" stroke-width="2"/>
</svg>
